<?xml version="1.0"?>
<svg xmlns="http://www.w3.org/2000/svg" id="Filled_outline" data-name="Filled outline" viewBox="0 0 64 64" width="512" height="512"><rect x="28" y="37" width="8" height="8" style="fill:#f2cca0"/><path d="M43,14V28A11,11,0,0,1,32,39h0A11,11,0,0,1,21,28V14Z" style="fill:#ffd7a8"/><path d="M22,12H42a1,1,0,0,1,1,1v1a4,4,0,0,1-4,4H25a4,4,0,0,1-4-4V13A1,1,0,0,1,22,12Z" style="fill:#bcbcbc"/><path d="M39.4,6.2,37.6,3.8A2,2,0,0,0,36,3H28a2,2,0,0,0-1.6.8L24.6,6.2A2,2,0,0,1,23,7H22a2,2,0,0,0-2,2v1a2,2,0,0,0,2,2H42a2,2,0,0,0,2-2V9a2,2,0,0,0-2-2H41A2,2,0,0,1,39.4,6.2Z" style="fill:#898989"/><path d="M32,62H50V51.35361A4,4,0,0,0,47.94257,47.857L41,44l-9,1Z" style="fill:#7c7c7c"/><path d="M32,45l-9-1-6.94257,3.857A4,4,0,0,0,14,51.35361V62H32Z" style="fill:#898989"/><path d="M27.36424,41.90949,32,45l-2.36844,3.15792a1,1,0,0,1-1.44019.16822L23,44l1.84062-1.84062A2,2,0,0,1,27.36424,41.90949Z" style="fill:#efefef"/><path d="M36.63576,41.90949,32,45l2.36844,3.15792a1,1,0,0,0,1.44019.16822L41,44l-1.84062-1.84062A2,2,0,0,0,36.63576,41.90949Z" style="fill:#efefef"/><path d="M14,52h3a2,2,0,0,1,2,2v0a2,2,0,0,1-2,2H14a0,0,0,0,1,0,0V52a0,0,0,0,1,0,0Z" style="fill:#ffde7e"/><path d="M47,52h3a0,0,0,0,1,0,0v4a0,0,0,0,1,0,0H47a2,2,0,0,1-2-2v0a2,2,0,0,1,2-2Z" style="fill:#ffde7e"/><circle cx="27" cy="26" r="1"/><rect x="25" y="21" width="4" height="2"/><circle cx="37" cy="26" r="1"/><rect x="35" y="21" width="4" height="2"/><rect x="31" y="27" width="2" height="4"/><path d="M28.90869,32.14355l-1.03223,1.7129a8.00633,8.00633,0,0,0,8.24708,0l-1.03223-1.7129A6.10765,6.10765,0,0,1,28.90869,32.14355Z"/><path d="M45,10V9a3.00328,3.00328,0,0,0-3-3H41a1.00551,1.00551,0,0,1-.80029-.3999L38.3999,3.19922A3.01563,3.01563,0,0,0,36,2H28a3.01633,3.01633,0,0,0-2.40039,1.19971l-1.79932,2.3999A1.00457,1.00457,0,0,1,23,6H22a3.00328,3.00328,0,0,0-3,3v1a2.98286,2.98286,0,0,0,1.12585,2.32361A1.97858,1.97858,0,0,0,20,13V28a12.00652,12.00652,0,0,0,7,10.89453v1.77722a3.00561,3.00561,0,0,0-2.86621.7804l-1.74158,1.74158-6.82043,3.78918A4.9945,4.9945,0,0,0,13.02386,51H13V62h2V57h2a3,3,0,0,0,0-6H15.04773a2.98212,2.98212,0,0,1,1.49573-2.269l6.34283-3.52387,4.66547,3.88764a2.00976,2.00976,0,0,0,1.28222.46289,1.92179,1.92179,0,0,0,.23047-.01367,2.00736,2.00736,0,0,0,1.3667-.78614L31,47.99957V62h2V47.99969l.56836.75763a2.00822,2.00822,0,0,0,1.36719.78663,1.92179,1.92179,0,0,0,.23047.01367,2.0098,2.0098,0,0,0,1.28271-.46338l4.665-3.88715L47.45654,48.731A2.98219,2.98219,0,0,1,48.95233,51H47a3,3,0,0,0,0,6h2v5h2V51h-.02386a4.9945,4.9945,0,0,0-2.54792-4.01709l-6.82043-3.78918-1.74158-1.74158A3.00771,3.00771,0,0,0,37,40.67151v-1.777A12.00652,12.00652,0,0,0,44,28V13a1.97858,1.97858,0,0,0-.12585-.67639A2.98286,2.98286,0,0,0,45,10ZM18,54a1.0013,1.0013,0,0,1-1,1H15V53h2A1.0013,1.0013,0,0,1,18,54Zm29,1a1,1,0,0,1,0-2h2v2ZM21,9a1.0013,1.0013,0,0,1,1-1h1a3.01633,3.01633,0,0,0,2.40039-1.19971l1.79932-2.3999A1.00457,1.00457,0,0,1,28,4h8a1.00387,1.00387,0,0,1,.7998.3999l1.79981,2.40039.00049.00049A3.01563,3.01563,0,0,0,41,8h1a1.0013,1.0013,0,0,1,1,1v1a1.0013,1.0013,0,0,1-1,1H22a1.0013,1.0013,0,0,1-1-1Zm7.83154,38.55811-4.35009-3.62549,1.0664-1.06641a1.00415,1.00415,0,0,1,1.26172-.12451l3.75635,2.50391Zm9.62061-4.6919,1.0664,1.06641-4.35009,3.625-1.73389-2.312,3.75586-2.50391A1.00459,1.00459,0,0,1,38.45215,42.86621ZM35,41.79828,32,43.7981l-3-1.99982V39.605a11.591,11.591,0,0,0,6,0ZM32,38A10.01114,10.01114,0,0,1,22,28V17.97443A4.95129,4.95129,0,0,0,25,19H39a4.95129,4.95129,0,0,0,3-1.02557V28A10.01114,10.01114,0,0,1,32,38ZM42,14a3.00328,3.00328,0,0,1-3,3H25a3.00328,3.00328,0,0,1-3-3V13H42Z"/><rect x="19" y="59" width="2" height="3"/><rect x="43" y="59" width="2" height="3"/><circle cx="36" cy="54" r="1"/><circle cx="36" cy="59" r="1"/></svg>
