<svg width="27" height="21" viewBox="0 0 27 21" fill="none" xmlns="http://www.w3.org/2000/svg">
<path fill-rule="evenodd" clip-rule="evenodd" d="M0.628607 5.92153L13.1269 0.922204L13.1286 0.921531C13.2504 0.872831 13.376 0.849755 13.4996 0.849742C13.6135 0.849659 13.7292 0.869179 13.842 0.910309C13.8524 0.914099 13.8628 0.91806 13.873 0.922191L26.3714 5.92153C26.8842 6.12664 27.1336 6.70861 26.9285 7.2214C26.7234 7.73418 26.1414 7.9836 25.6286 7.77848L21.5 6.12704V9.95C21.5 12.4 20.7917 14.6373 19.375 16.662C17.9583 18.6873 16.1583 20.0417 13.975 20.725C13.8917 20.7583 13.7333 20.775 13.5 20.775H13.25C13.1667 20.775 13.0917 20.7583 13.025 20.725C10.8417 20.0417 9.04166 18.6873 7.625 16.662C6.20833 14.6373 5.5 12.4 5.5 9.95V6.12704L1.37139 7.77848C0.858605 7.9836 0.276634 7.73418 0.071521 7.2214C-0.133592 6.70861 0.115824 6.12664 0.628607 5.92153ZM19.5 5.32704L15.4184 3.69442L13.5 2.975L11.5816 3.69442L7.5 5.32704V9.95C7.5 11.9667 8.06666 13.8 9.2 15.45C10.3333 17.1 11.7667 18.2 13.5 18.75C15.2333 18.2 16.6667 17.1 17.8 15.45C18.9333 13.8 19.5 11.9667 19.5 9.95V5.32704ZM15 8.5C15 9.32843 14.3284 10 13.5 10C12.6716 10 12 9.32843 12 8.5C12 7.67157 12.6716 7 13.5 7C14.3284 7 15 7.67157 15 8.5ZM17 8.5C17 10.433 15.433 12 13.5 12C11.567 12 10 10.433 10 8.5C10 6.567 11.567 5 13.5 5C15.433 5 17 6.567 17 8.5Z" fill="#0057FF"/>
</svg>
